<mxfile host="app.diagrams.net" modified="2021-02-09T06:30:20.149Z" agent="5.0 (Macintosh; Intel Mac OS X 10_15_7) AppleWebKit/537.36 (KHTML, like Gecko) Chrome/88.0.4324.150 Safari/537.36" etag="PQeUrqjqCLfOPguZ5-I8" version="14.3.0" type="github">
  <diagram id="CbQBA2y31EfO1MqVkFBl" name="Page-1">
    <mxGraphModel dx="1257" dy="843" grid="1" gridSize="10" guides="1" tooltips="1" connect="1" arrows="1" fold="1" page="1" pageScale="1" pageWidth="827" pageHeight="1169" math="0" shadow="0">
      <root>
        <mxCell id="0" />
        <mxCell id="1" parent="0" />
        <mxCell id="UB0zhnivwcBInwVFt3Wu-4" value="" style="edgeStyle=orthogonalEdgeStyle;rounded=0;orthogonalLoop=1;jettySize=auto;html=1;" edge="1" parent="1" source="UB0zhnivwcBInwVFt3Wu-1" target="UB0zhnivwcBInwVFt3Wu-2">
          <mxGeometry relative="1" as="geometry" />
        </mxCell>
        <mxCell id="UB0zhnivwcBInwVFt3Wu-5" value="引用" style="edgeLabel;html=1;align=center;verticalAlign=middle;resizable=0;points=[];" vertex="1" connectable="0" parent="UB0zhnivwcBInwVFt3Wu-4">
          <mxGeometry y="-4" relative="1" as="geometry">
            <mxPoint as="offset" />
          </mxGeometry>
        </mxCell>
        <mxCell id="UB0zhnivwcBInwVFt3Wu-1" value="Feature(特征)" style="rounded=0;whiteSpace=wrap;html=1;" vertex="1" parent="1">
          <mxGeometry x="40" y="360" width="120" height="60" as="geometry" />
        </mxCell>
        <mxCell id="UB0zhnivwcBInwVFt3Wu-2" value="" style="shape=curlyBracket;whiteSpace=wrap;html=1;rounded=1;" vertex="1" parent="1">
          <mxGeometry x="260" y="195" width="90" height="390" as="geometry" />
        </mxCell>
        <mxCell id="UB0zhnivwcBInwVFt3Wu-6" value="datamodel(数据模型)" style="rounded=0;whiteSpace=wrap;html=1;" vertex="1" parent="1">
          <mxGeometry x="354" y="170" width="120" height="60" as="geometry" />
        </mxCell>
        <mxCell id="UB0zhnivwcBInwVFt3Wu-7" value="datamodel(数据模型)" style="rounded=0;whiteSpace=wrap;html=1;" vertex="1" parent="1">
          <mxGeometry x="354" y="260" width="120" height="60" as="geometry" />
        </mxCell>
        <mxCell id="UB0zhnivwcBInwVFt3Wu-8" value="&lt;b&gt;。&lt;br&gt;。&lt;br&gt;。&lt;br&gt;。&lt;/b&gt;" style="text;html=1;strokeColor=none;fillColor=none;align=center;verticalAlign=middle;whiteSpace=wrap;rounded=0;" vertex="1" parent="1">
          <mxGeometry x="391" y="400" width="46" height="100" as="geometry" />
        </mxCell>
        <mxCell id="UB0zhnivwcBInwVFt3Wu-9" value="sinkstrategy(累积策略)" style="rounded=0;whiteSpace=wrap;html=1;" vertex="1" parent="1">
          <mxGeometry x="600" y="170" width="120" height="60" as="geometry" />
        </mxCell>
        <mxCell id="UB0zhnivwcBInwVFt3Wu-10" value="&lt;b style=&quot;font-size: 15px;&quot;&gt;1对多&lt;/b&gt;" style="text;html=1;strokeColor=none;fillColor=none;align=center;verticalAlign=middle;whiteSpace=wrap;rounded=0;fontSize=15;" vertex="1" parent="1">
          <mxGeometry x="500" y="100" width="90" height="40" as="geometry" />
        </mxCell>
        <mxCell id="UB0zhnivwcBInwVFt3Wu-12" value="sinkstrategy(累积策略)" style="rounded=0;whiteSpace=wrap;html=1;" vertex="1" parent="1">
          <mxGeometry x="600" y="370" width="120" height="60" as="geometry" />
        </mxCell>
        <mxCell id="UB0zhnivwcBInwVFt3Wu-13" value="sinkstrategy(累积策略)" style="rounded=0;whiteSpace=wrap;html=1;" vertex="1" parent="1">
          <mxGeometry x="600" y="270" width="120" height="60" as="geometry" />
        </mxCell>
        <mxCell id="UB0zhnivwcBInwVFt3Wu-14" value="" style="endArrow=classic;html=1;fontSize=15;exitX=1;exitY=0.5;exitDx=0;exitDy=0;entryX=0;entryY=0.5;entryDx=0;entryDy=0;" edge="1" parent="1" source="UB0zhnivwcBInwVFt3Wu-6" target="UB0zhnivwcBInwVFt3Wu-9">
          <mxGeometry width="50" height="50" relative="1" as="geometry">
            <mxPoint x="520" y="250" as="sourcePoint" />
            <mxPoint x="570" y="200" as="targetPoint" />
          </mxGeometry>
        </mxCell>
        <mxCell id="UB0zhnivwcBInwVFt3Wu-15" value="" style="endArrow=classic;html=1;fontSize=15;exitX=1;exitY=0.5;exitDx=0;exitDy=0;entryX=0;entryY=0.5;entryDx=0;entryDy=0;" edge="1" parent="1" source="UB0zhnivwcBInwVFt3Wu-6" target="UB0zhnivwcBInwVFt3Wu-13">
          <mxGeometry width="50" height="50" relative="1" as="geometry">
            <mxPoint x="484" y="210" as="sourcePoint" />
            <mxPoint x="610" y="210" as="targetPoint" />
          </mxGeometry>
        </mxCell>
        <mxCell id="UB0zhnivwcBInwVFt3Wu-16" value="" style="endArrow=classic;html=1;fontSize=15;exitX=1;exitY=0.5;exitDx=0;exitDy=0;entryX=0;entryY=0.5;entryDx=0;entryDy=0;" edge="1" parent="1" source="UB0zhnivwcBInwVFt3Wu-7" target="UB0zhnivwcBInwVFt3Wu-12">
          <mxGeometry width="50" height="50" relative="1" as="geometry">
            <mxPoint x="484" y="210" as="sourcePoint" />
            <mxPoint x="610" y="290" as="targetPoint" />
          </mxGeometry>
        </mxCell>
        <mxCell id="UB0zhnivwcBInwVFt3Wu-17" value="&lt;b&gt;。&lt;br&gt;。&lt;br&gt;。&lt;br&gt;。&lt;/b&gt;" style="text;html=1;strokeColor=none;fillColor=none;align=center;verticalAlign=middle;whiteSpace=wrap;rounded=0;" vertex="1" parent="1">
          <mxGeometry x="640" y="460" width="46" height="100" as="geometry" />
        </mxCell>
        <mxCell id="UB0zhnivwcBInwVFt3Wu-18" value="datastore数据存储" style="rounded=0;whiteSpace=wrap;html=1;" vertex="1" parent="1">
          <mxGeometry x="800" y="160" width="120" height="30" as="geometry" />
        </mxCell>
        <mxCell id="UB0zhnivwcBInwVFt3Wu-19" value="datasource数据存储" style="rounded=0;whiteSpace=wrap;html=1;" vertex="1" parent="1">
          <mxGeometry x="800" y="210" width="120" height="30" as="geometry" />
        </mxCell>
        <mxCell id="UB0zhnivwcBInwVFt3Wu-20" value="datastore数据存储" style="rounded=0;whiteSpace=wrap;html=1;" vertex="1" parent="1">
          <mxGeometry x="800" y="260" width="120" height="30" as="geometry" />
        </mxCell>
        <mxCell id="UB0zhnivwcBInwVFt3Wu-21" value="datasource数据存储" style="rounded=0;whiteSpace=wrap;html=1;" vertex="1" parent="1">
          <mxGeometry x="800" y="310" width="120" height="30" as="geometry" />
        </mxCell>
        <mxCell id="UB0zhnivwcBInwVFt3Wu-22" value="datastore数据存储" style="rounded=0;whiteSpace=wrap;html=1;" vertex="1" parent="1">
          <mxGeometry x="800" y="360" width="120" height="30" as="geometry" />
        </mxCell>
        <mxCell id="UB0zhnivwcBInwVFt3Wu-23" value="datasource数据存储" style="rounded=0;whiteSpace=wrap;html=1;" vertex="1" parent="1">
          <mxGeometry x="800" y="410" width="120" height="30" as="geometry" />
        </mxCell>
        <mxCell id="UB0zhnivwcBInwVFt3Wu-24" value="&lt;b style=&quot;font-size: 15px&quot;&gt;1对1&lt;/b&gt;" style="text;html=1;strokeColor=none;fillColor=none;align=center;verticalAlign=middle;whiteSpace=wrap;rounded=0;fontSize=15;" vertex="1" parent="1">
          <mxGeometry x="710" y="100" width="90" height="40" as="geometry" />
        </mxCell>
        <mxCell id="UB0zhnivwcBInwVFt3Wu-25" value="" style="endArrow=classic;html=1;fontSize=15;exitX=1;exitY=0.5;exitDx=0;exitDy=0;entryX=0;entryY=0.5;entryDx=0;entryDy=0;" edge="1" parent="1" source="UB0zhnivwcBInwVFt3Wu-9" target="UB0zhnivwcBInwVFt3Wu-18">
          <mxGeometry width="50" height="50" relative="1" as="geometry">
            <mxPoint x="720" y="160" as="sourcePoint" />
            <mxPoint x="846" y="160" as="targetPoint" />
          </mxGeometry>
        </mxCell>
        <mxCell id="UB0zhnivwcBInwVFt3Wu-26" value="" style="endArrow=classic;html=1;fontSize=15;exitX=1;exitY=0.5;exitDx=0;exitDy=0;entryX=0;entryY=0.5;entryDx=0;entryDy=0;" edge="1" parent="1" source="UB0zhnivwcBInwVFt3Wu-9" target="UB0zhnivwcBInwVFt3Wu-19">
          <mxGeometry width="50" height="50" relative="1" as="geometry">
            <mxPoint x="730" y="210" as="sourcePoint" />
            <mxPoint x="810" y="185" as="targetPoint" />
          </mxGeometry>
        </mxCell>
        <mxCell id="UB0zhnivwcBInwVFt3Wu-27" value="" style="endArrow=classic;html=1;fontSize=15;exitX=1;exitY=0.5;exitDx=0;exitDy=0;entryX=0;entryY=0.5;entryDx=0;entryDy=0;" edge="1" parent="1">
          <mxGeometry width="50" height="50" relative="1" as="geometry">
            <mxPoint x="720" y="300" as="sourcePoint" />
            <mxPoint x="800" y="275" as="targetPoint" />
          </mxGeometry>
        </mxCell>
        <mxCell id="UB0zhnivwcBInwVFt3Wu-28" value="" style="endArrow=classic;html=1;fontSize=15;exitX=1;exitY=0.5;exitDx=0;exitDy=0;entryX=0;entryY=0.5;entryDx=0;entryDy=0;" edge="1" parent="1">
          <mxGeometry width="50" height="50" relative="1" as="geometry">
            <mxPoint x="720" y="300" as="sourcePoint" />
            <mxPoint x="800" y="325" as="targetPoint" />
          </mxGeometry>
        </mxCell>
        <mxCell id="UB0zhnivwcBInwVFt3Wu-29" value="" style="endArrow=classic;html=1;fontSize=15;exitX=1;exitY=0.5;exitDx=0;exitDy=0;entryX=0;entryY=0.5;entryDx=0;entryDy=0;" edge="1" parent="1">
          <mxGeometry width="50" height="50" relative="1" as="geometry">
            <mxPoint x="720" y="405" as="sourcePoint" />
            <mxPoint x="800" y="380" as="targetPoint" />
          </mxGeometry>
        </mxCell>
        <mxCell id="UB0zhnivwcBInwVFt3Wu-30" value="" style="endArrow=classic;html=1;fontSize=15;exitX=1;exitY=0.5;exitDx=0;exitDy=0;entryX=0;entryY=0.5;entryDx=0;entryDy=0;" edge="1" parent="1">
          <mxGeometry width="50" height="50" relative="1" as="geometry">
            <mxPoint x="720" y="405" as="sourcePoint" />
            <mxPoint x="800" y="430" as="targetPoint" />
          </mxGeometry>
        </mxCell>
        <mxCell id="UB0zhnivwcBInwVFt3Wu-31" value="&lt;b&gt;。&lt;br&gt;。&lt;br&gt;。&lt;br&gt;。&lt;/b&gt;" style="text;html=1;strokeColor=none;fillColor=none;align=center;verticalAlign=middle;whiteSpace=wrap;rounded=0;" vertex="1" parent="1">
          <mxGeometry x="827" y="500" width="46" height="100" as="geometry" />
        </mxCell>
        <mxCell id="UB0zhnivwcBInwVFt3Wu-32" value="" style="endArrow=classic;html=1;fontSize=15;exitX=1;exitY=0.5;exitDx=0;exitDy=0;entryX=1;entryY=0.5;entryDx=0;entryDy=0;strokeColor=#FF3333;" edge="1" parent="1" source="UB0zhnivwcBInwVFt3Wu-19" target="UB0zhnivwcBInwVFt3Wu-18">
          <mxGeometry width="50" height="50" relative="1" as="geometry">
            <mxPoint x="940" y="240" as="sourcePoint" />
            <mxPoint x="990" y="200" as="targetPoint" />
            <Array as="points">
              <mxPoint x="960" y="200" />
            </Array>
          </mxGeometry>
        </mxCell>
        <mxCell id="UB0zhnivwcBInwVFt3Wu-33" value="" style="endArrow=classic;html=1;fontSize=15;exitX=1;exitY=0.5;exitDx=0;exitDy=0;entryX=1;entryY=0.5;entryDx=0;entryDy=0;strokeColor=#FF3333;" edge="1" parent="1">
          <mxGeometry width="50" height="50" relative="1" as="geometry">
            <mxPoint x="920" y="325" as="sourcePoint" />
            <mxPoint x="920" y="275" as="targetPoint" />
            <Array as="points">
              <mxPoint x="960" y="300" />
            </Array>
          </mxGeometry>
        </mxCell>
        <mxCell id="UB0zhnivwcBInwVFt3Wu-34" value="" style="endArrow=classic;html=1;fontSize=15;exitX=1;exitY=0.5;exitDx=0;exitDy=0;entryX=1;entryY=0.5;entryDx=0;entryDy=0;strokeColor=#FF3333;" edge="1" parent="1">
          <mxGeometry width="50" height="50" relative="1" as="geometry">
            <mxPoint x="920" y="425" as="sourcePoint" />
            <mxPoint x="920" y="375" as="targetPoint" />
            <Array as="points">
              <mxPoint x="960" y="400" />
            </Array>
          </mxGeometry>
        </mxCell>
        <mxCell id="UB0zhnivwcBInwVFt3Wu-35" value="" style="shape=flexArrow;endArrow=classic;html=1;fontSize=15;" edge="1" parent="1">
          <mxGeometry width="50" height="50" relative="1" as="geometry">
            <mxPoint x="1000" y="380" as="sourcePoint" />
            <mxPoint x="1000" y="210" as="targetPoint" />
          </mxGeometry>
        </mxCell>
        <mxCell id="UB0zhnivwcBInwVFt3Wu-36" value="Raw Data" style="text;html=1;strokeColor=none;fillColor=none;align=center;verticalAlign=middle;whiteSpace=wrap;rounded=0;fontSize=15;" vertex="1" parent="1">
          <mxGeometry x="960" y="390" width="90" height="35" as="geometry" />
        </mxCell>
        <mxCell id="UB0zhnivwcBInwVFt3Wu-37" value="Structured Data" style="text;html=1;strokeColor=none;fillColor=none;align=center;verticalAlign=middle;whiteSpace=wrap;rounded=0;fontSize=15;" vertex="1" parent="1">
          <mxGeometry x="960" y="170" width="90" height="35" as="geometry" />
        </mxCell>
      </root>
    </mxGraphModel>
  </diagram>
</mxfile>
